<?xml version="1.0" encoding="utf-8"?>
<!-- Generator: Adobe Illustrator 27.5.0, SVG Export Plug-In . SVG Version: 6.00 Build 0)  -->
<svg version="1.1" xmlns="http://www.w3.org/2000/svg" xmlns:xlink="http://www.w3.org/1999/xlink" x="0px" y="0px"
	 viewBox="0 0 2000 2000" style="enable-background:new 0 0 2000 2000;" xml:space="preserve">
<g id="BACKGROUND">
	<rect x="-2.363" y="-1.772" style="fill:#D0ECFC;" width="2000" height="2000"/>
	<circle style="fill:#FFFFFF;" cx="997.637" cy="994.884" r="659.247"/>
</g>
<g id="OBJECTS">
	<ellipse style="fill:#A2C6DD;" cx="1000" cy="1786.616" rx="530.432" ry="34.961"/>
	<g>
		<g>
			<path style="fill:#B4DCF3;" d="M1479.025,1070.33c-0.155-1.356-0.309-2.709-0.463-4.059c-0.154-1.349-0.293-2.697-0.551-4.025
				c-0.462-2.661-0.922-5.31-1.379-7.946c-1.18-5.217-2.304-10.388-3.893-15.375c-3.007-10.009-6.742-19.56-11.336-28.376
				c-0.558-1.108-1.115-2.212-1.67-3.312c-0.613-1.071-1.224-2.138-1.833-3.201c-1.245-2.107-2.376-4.265-3.698-6.271
				c-1.317-2.006-2.624-3.996-3.92-5.971c-1.28-1.982-2.755-3.804-4.109-5.683c-2.675-3.786-5.716-7.175-8.533-10.619
				c-1.507-1.634-3.001-3.252-4.479-4.855c-0.742-0.796-1.48-1.589-2.214-2.378c-0.771-0.751-1.538-1.499-2.301-2.243
				c-7.386-7.242-14.916-13.478-22.337-18.801c0.287-0.18,0.585-0.382,0.905-0.624c1.62-1.276,3.89-3.275,6.073-6.273
				c4.676-5.826,10.025-15.248,13.94-27.671c3.817-12.398,6.071-27.81,4.807-44.432c-0.645-8.303-2.26-16.844-4.673-25.382
				c-2.603-8.483-6.149-16.887-10.599-24.891c-4.621-7.899-10.076-15.281-16.13-21.913c-6.188-6.487-12.839-12.316-19.822-17.166
				c-13.983-9.688-28.915-15.654-42.074-18.438c-13.222-2.716-24.595-2.368-32.251-0.395c-3.527,0.744-6.283,2.059-8.2,3.344
				c-0.927-5.378-2.209-10.814-3.751-16.29c-1.579-5.686-3.613-11.353-5.872-17.026c-2.314-5.653-5.01-11.246-7.997-16.762
				c-3.052-5.482-6.448-10.849-10.157-16.056c-3.772-5.162-7.866-10.142-12.254-14.883c-4.446-4.684-9.161-9.105-14.093-13.224
				c-4.978-4.056-10.152-7.82-15.476-11.249c-5.36-3.365-10.831-6.447-16.399-9.149c-5.589-2.647-11.204-5.068-16.874-7.026
				c-5.66-1.977-11.309-3.675-16.923-4.961c-5.597-1.358-11.156-2.3-16.58-3.024c-10.866-1.366-21.245-1.572-30.738-0.875
				c-9.497,0.724-18.099,2.332-25.511,4.41c-7.423,2.058-13.632,4.69-18.511,7.259c-3.537,1.909-6.35,3.799-8.449,5.581
				c-1.186-2.271-2.409-4.543-3.673-6.816c-1.188-2.281-2.598-4.45-3.904-6.704c-1.359-2.22-2.621-4.528-4.094-6.717
				c-2.891-4.414-5.758-8.936-8.979-13.284c-1.601-2.179-3.101-4.459-4.818-6.589c-1.685-2.157-3.378-4.326-5.079-6.505
				c-1.678-2.201-3.556-4.253-5.343-6.402c-1.818-2.121-3.599-4.296-5.55-6.334c-1.919-2.07-3.845-4.148-5.779-6.235
				c-1.98-2.043-4.036-4.031-6.068-6.059l-3.073-3.03l-3.202-2.917c-2.154-1.932-4.261-3.935-6.482-5.823
				c-8.839-7.612-18.317-14.718-28.25-21.37c-10.028-6.514-20.571-12.445-31.521-17.732c-11.028-5.127-22.456-9.549-34.163-13.201
				c-11.762-3.463-23.741-6.138-35.799-8.003c-12.077-1.688-24.195-2.614-36.223-2.761c-12.022,0.021-23.936,0.678-35.608,2.124
				c-2.919,0.342-5.806,0.844-8.695,1.262c-1.443,0.22-2.884,0.44-4.322,0.66c-1.427,0.276-2.852,0.551-4.274,0.826
				c-2.841,0.568-5.682,1.088-8.49,1.699c-2.794,0.673-5.577,1.343-8.348,2.01c-2.783,0.624-5.497,1.456-8.214,2.225
				c-2.706,0.809-5.438,1.489-8.082,2.403c-2.653,0.885-5.293,1.765-7.92,2.64c-2.641,0.836-5.179,1.917-7.749,2.861
				c-5.151,1.869-10.099,4.08-15.011,6.195c-2.47,1.027-4.825,2.27-7.217,3.388c-2.365,1.175-4.771,2.225-7.051,3.49
				c-18.492,9.619-34.917,20.649-48.933,32.177c-13.988,11.579-25.566,23.615-34.812,35.037
				c-9.291,11.402-16.051,22.343-21.006,31.583c-1.201,2.339-2.313,4.56-3.332,6.658c-1.045,2.081-1.803,4.163-2.583,6.043
				c-1.395,3.507-2.489,6.532-3.131,9.189c-2.069-1.056-4.192-2.092-6.443-3.034c-1.518-0.677-3.061-1.365-4.627-2.063
				c-1.569-0.697-3.159-1.423-4.828-1.992c-3.326-1.206-6.748-2.446-10.26-3.719c-1.75-0.68-3.589-1.121-5.425-1.675
				c-1.845-0.527-3.713-1.06-5.602-1.6c-1.899-0.505-3.796-1.144-5.765-1.547c-1.967-0.424-3.956-0.852-5.966-1.285
				c-16.086-3.437-33.995-5.383-52.995-4.842c-18.983,0.53-39.061,3.561-59.027,9.806c-19.981,6.217-39.675,15.731-57.767,28.053
				c-18.113,12.31-34.672,27.402-48.827,44.465c-14.057,17.145-25.695,36.242-34.312,56.286
				c-8.634,20.028-14.212,41.04-16.546,61.676c-2.364,20.629-1.599,40.739,1.353,59.319c0.989,6.246,2.242,12.302,3.679,18.186
				c-3.693,0.253-7.99,0.83-12.878,1.839c-8.595,1.825-18.848,5.131-30.012,10.409c-11.137,5.306-23.119,12.685-34.949,22.414
				c-11.762,9.781-23.364,21.925-33.466,36.482c-10.097,14.532-18.684,31.504-24.253,50.285c-5.605,18.784-7.964,39.22-6.76,59.636
				c1.22,20.429,5.885,40.858,13.607,60.023c7.779,19.143,18.614,37.023,31.87,52.488c13.261,15.446,29.034,28.408,45.935,37.962
				c16.876,9.578,34.625,15.802,51.763,19.294c17.16,3.506,33.72,4.304,48.794,3.369c15.087-1.02,28.69-3.76,40.326-7.339
				c11.637-3.618,21.329-7.956,28.911-12.161c7.281-4.091,12.634-7.88,16.157-10.864c6.444,8.516,14.641,17.886,24.661,27.445
				c8.49,8.129,18.299,16.343,29.318,24.208c11.014,7.864,23.215,15.43,36.5,22.078c26.445,13.484,57.327,23.217,89.099,26.764
				l5.964,0.555l2.981,0.27l2.988,0.174l5.971,0.326l6.169,0.097c8.234-0.024,16.462-0.572,24.526-1.843
				c8.058-1.286,15.943-3.167,23.533-5.572c7.593-2.408,14.834-5.451,21.72-8.802c6.901-3.338,13.354-7.174,19.423-11.202
				c6.093-4.004,11.714-8.332,16.967-12.738c2.077-1.717,4.055-3.475,5.989-5.244c0.54,0.603,1.097,1.215,1.687,1.847
				c7.926,8.826,21.36,19.478,39.578,28.785c18.222,9.167,41.276,16.798,66.874,19.834c3.207,0.295,6.441,0.593,9.699,0.893
				l2.45,0.207l2.468,0.072c1.649,0.044,3.303,0.089,4.962,0.133c1.66,0.039,3.325,0.078,4.994,0.117
				c1.669,0.076,3.345-0.084,5.024-0.119c3.359-0.146,6.734-0.292,10.123-0.439c13.538-1.135,27.192-3.552,40.535-7.242
				c13.266-3.969,26.087-9.171,38.114-15.371c2.938-1.667,5.865-3.328,8.776-4.98c1.435-0.857,2.931-1.604,4.301-2.55
				c1.388-0.914,2.772-1.825,4.152-2.733c1.376-0.911,2.747-1.82,4.114-2.725l2.042-1.359l1.958-1.464
				c2.589-1.964,5.159-3.914,7.708-5.848c1.967-1.574,3.876-3.177,5.755-4.794c1.219,1.916,3.405,4.042,6.508,6.319
				c5.901,4.217,15.117,8.82,26.98,12.668c11.85,3.846,26.347,6.834,42.362,8.108c16.01,1.354,33.511,0.749,51.163-1.772
				c8.809-1.359,17.691-3.024,26.395-5.379c4.382-1.052,8.667-2.472,12.97-3.734c2.124-0.726,4.243-1.451,6.358-2.175l3.159-1.103
				l3.114-1.203c8.326-3.094,16.275-6.828,23.894-10.63c1.878-1.007,3.744-2.007,5.595-3c0.921-0.501,1.839-1.001,2.753-1.499
				c0.898-0.529,1.792-1.056,2.682-1.58c1.774-1.054,3.532-2.1,5.274-3.135c1.701-1.102,3.386-2.193,5.053-3.272
				c13.279-8.71,24.423-18.068,32.989-26.755c3.799-3.839,7.062-7.527,9.869-10.966c1.009,0.21,2.019,0.42,3.033,0.63
				c1.276,0.247,2.576,0.387,3.869,0.584c2.594,0.362,5.201,0.725,7.822,1.09l1.97,0.269l2.005,0.173
				c1.339,0.113,2.681,0.226,4.027,0.34c2.692,0.166,5.401,0.293,8.122,0.373c2.718,0,5.456,0.109,8.194-0.014
				c21.931-0.494,44.432-5.023,65.759-13.679l3.994-1.646l3.945-1.788c2.649-1.154,5.207-2.526,7.812-3.801
				c5.125-2.727,10.215-5.578,15.098-8.809c9.841-6.33,19.06-13.784,27.472-22.114c8.389-8.352,15.881-17.692,22.195-27.757
				c1.522-2.554,3.107-5.063,4.471-7.703c0.696-1.311,1.427-2.601,2.086-3.929l1.928-4.006c0.667-1.324,1.23-2.689,1.786-4.055
				l1.681-4.088c1.187-2.699,2.055-5.501,2.986-8.273c3.652-11.108,5.985-22.471,7.127-33.754
				C1480.271,1092.38,1480.137,1081.191,1479.025,1070.33z"/>
			<g>
				<path style="fill:#8FC8E5;" d="M1356.155,932.565c0,0,70.658,77.194,15.483,182.944
					c-55.174,105.751-165.523,96.555-172.44,100.57c-43.7,49.994-126.42,23.572-132.457-19.705
					c-84.2,80.865-182.476,38.679-251.444-21.093c22.989-55.174-9.196-114.946-9.196-114.946s-59.772,142.534-234.49,170.121
					c-174.718,27.587-206.903-151.729-206.903-151.729s-36.783,59.772-119.544,36.783c-44.762-12.434-64.389-71.051-74.934-121.286
					c-7.038,11.887-13.003,25.084-17.226,39.327c-5.605,18.784-7.964,39.22-6.76,59.636c1.22,20.429,5.885,40.858,13.607,60.023
					c7.779,19.143,18.614,37.023,31.87,52.488c13.261,15.446,29.034,28.408,45.935,37.962c16.876,9.578,34.625,15.802,51.763,19.294
					c17.16,3.506,33.72,4.304,48.794,3.369c15.087-1.02,28.69-3.76,40.326-7.339c11.637-3.618,21.329-7.956,28.911-12.161
					c7.281-4.091,12.634-7.88,16.157-10.864c6.444,8.516,14.641,17.886,24.661,27.445c8.49,8.129,18.299,16.343,29.318,24.208
					c11.014,7.864,23.215,15.43,36.5,22.078c26.445,13.484,57.327,23.217,89.099,26.764l5.964,0.555l2.981,0.27l2.988,0.174
					l5.971,0.326l6.169,0.097c8.234-0.024,16.462-0.572,24.526-1.843c8.058-1.286,15.943-3.167,23.533-5.572
					c7.593-2.408,14.834-5.451,21.72-8.802c6.901-3.338,13.354-7.174,19.423-11.202c6.093-4.004,11.714-8.332,16.967-12.738
					c2.077-1.717,4.055-3.475,5.989-5.244c0.54,0.603,1.097,1.215,1.687,1.847c7.926,8.826,21.36,19.478,39.578,28.785
					c18.222,9.167,41.276,16.798,66.874,19.834c3.207,0.295,6.441,0.593,9.699,0.893l2.45,0.207l2.468,0.072
					c1.649,0.044,3.303,0.089,4.962,0.133c1.66,0.039,3.325,0.078,4.994,0.117c1.669,0.076,3.345-0.084,5.024-0.119
					c3.359-0.146,6.734-0.292,10.123-0.439c13.538-1.135,27.192-3.552,40.535-7.242c13.266-3.969,26.087-9.171,38.114-15.371
					c2.938-1.667,5.865-3.328,8.776-4.98c1.435-0.857,2.931-1.604,4.301-2.55c1.388-0.914,2.772-1.825,4.152-2.733
					c1.376-0.911,2.747-1.82,4.114-2.725l2.042-1.359l1.958-1.464c2.589-1.964,5.159-3.914,7.708-5.848
					c1.967-1.574,3.876-3.177,5.755-4.794c1.219,1.916,3.405,4.042,6.508,6.319c5.901,4.217,15.117,8.82,26.98,12.668
					c11.85,3.846,26.347,6.834,42.362,8.108c16.01,1.354,33.511,0.749,51.163-1.772c8.809-1.359,17.691-3.024,26.395-5.379
					c4.382-1.052,8.667-2.472,12.97-3.734c2.124-0.726,4.243-1.451,6.358-2.175l3.159-1.103l3.114-1.203
					c8.326-3.094,16.275-6.828,23.894-10.63c1.878-1.007,3.744-2.007,5.595-3c0.921-0.501,1.839-1.001,2.753-1.499
					c0.898-0.529,1.792-1.056,2.682-1.58c1.774-1.054,3.532-2.1,5.274-3.135c1.701-1.102,3.386-2.193,5.053-3.272
					c13.279-8.71,24.423-18.068,32.989-26.755c3.799-3.839,7.062-7.527,9.869-10.966c1.009,0.21,2.019,0.42,3.033,0.63
					c1.276,0.247,2.576,0.387,3.869,0.584c2.594,0.362,5.201,0.725,7.822,1.09l1.97,0.269l2.005,0.173
					c1.339,0.113,2.681,0.226,4.027,0.34c2.692,0.166,5.401,0.293,8.122,0.373c2.718,0,5.456,0.109,8.194-0.014
					c21.931-0.494,44.432-5.023,65.759-13.679l3.994-1.646l3.945-1.788c2.649-1.154,5.207-2.526,7.812-3.801
					c5.125-2.727,10.215-5.578,15.098-8.809c9.841-6.33,19.06-13.784,27.472-22.114c8.389-8.352,15.881-17.692,22.195-27.757
					c1.522-2.554,3.107-5.063,4.471-7.703c0.696-1.311,1.427-2.601,2.086-3.929l1.928-4.006c0.667-1.324,1.23-2.689,1.786-4.055
					l1.681-4.088c1.187-2.699,2.055-5.501,2.986-8.273c3.652-11.108,5.985-22.471,7.127-33.754
					c1.04-11.294,0.906-22.483-0.205-33.344c-0.155-1.356-0.309-2.709-0.463-4.059c-0.154-1.349-0.293-2.697-0.551-4.025
					c-0.462-2.661-0.922-5.31-1.379-7.946c-1.18-5.217-2.304-10.388-3.893-15.375c-3.007-10.009-6.742-19.56-11.336-28.376
					c-0.558-1.108-1.115-2.212-1.67-3.312c-0.613-1.071-1.224-2.138-1.833-3.201c-1.245-2.107-2.376-4.265-3.698-6.271
					c-1.317-2.006-2.624-3.996-3.92-5.971c-1.28-1.982-2.755-3.804-4.109-5.683c-2.675-3.786-5.716-7.175-8.533-10.619
					c-1.507-1.634-3.001-3.252-4.479-4.855c-0.742-0.796-1.48-1.589-2.214-2.378c-0.771-0.751-1.538-1.499-2.301-2.243
					c-7.386-7.242-14.916-13.478-22.337-18.801c0.287-0.18,0.585-0.382,0.905-0.624c1.62-1.276,3.89-3.275,6.073-6.273
					c4.676-5.826,10.025-15.248,13.94-27.671c3.817-12.398,6.071-27.81,4.807-44.432c-0.645-8.303-2.26-16.844-4.673-25.382
					c-2.603-8.483-6.149-16.887-10.599-24.891c-4.621-7.899-10.076-15.281-16.13-21.913c-6.188-6.487-12.839-12.316-19.822-17.166
					C1422.165,879.01,1356.155,932.565,1356.155,932.565z"/>
				<path style="fill:#8FC8E5;" d="M357.564,1024.311c2.052-31.426,89.905-115.706,89.905-124.901
					c-114.115,0-141.927-74.531-147.492-126.236c-8.576,19.957-14.122,40.885-16.447,61.441
					c-2.364,20.629-1.599,40.739,1.353,59.319c0.989,6.246,2.242,12.302,3.679,18.186c-3.662,0.251-7.922,0.823-12.759,1.817
					C288.702,958.883,316.284,997.731,357.564,1024.311z"/>
				<path style="fill:#8FC8E5;" d="M1102.547,812.292c0,0,105.737-59.091,118.607-158.891c-2.927-1.652-5.883-3.218-8.868-4.666
					c-5.589-2.647-11.204-5.068-16.874-7.026c-5.66-1.977-11.309-3.675-16.923-4.961c-5.597-1.358-11.156-2.3-16.58-3.024
					c-10.866-1.366-21.245-1.572-30.738-0.875c-9.497,0.724-18.099,2.332-25.511,4.41c-7.423,2.058-13.632,4.69-18.511,7.259
					c-3.537,1.909-6.35,3.799-8.449,5.581c-1.186-2.271-2.409-4.543-3.673-6.816c-1.188-2.281-2.598-4.45-3.904-6.704
					c-1.359-2.22-2.621-4.528-4.094-6.717c-2.891-4.414-5.758-8.936-8.979-13.284c-1.601-2.179-3.101-4.459-4.818-6.589
					c-1.685-2.157-3.378-4.326-5.079-6.505c-1.678-2.201-3.556-4.253-5.343-6.402c-1.818-2.121-3.599-4.296-5.55-6.334
					c-1.919-2.07-3.845-4.148-5.779-6.235c-1.98-2.043-4.036-4.031-6.068-6.059l-2.797-2.758
					c-16.892,6.951-27.699,12.435-27.699,12.435S1086.337,651.609,1102.547,812.292z"/>
				<path style="fill:#8FC8E5;" d="M883.332,722.231c5.505,2.707,11.138,5.383,16.936,8.017
					C894.721,726.624,889.063,724.016,883.332,722.231z"/>
				<path style="fill:#8FC8E5;" d="M700.352,775.268c25.572,38.359,110.249-75.692,182.981-53.037
					C773.578,668.26,721.748,600.04,721.079,532.73c-1.811,0.865-3.622,1.705-5.361,2.67c-18.492,9.619-34.917,20.649-48.933,32.177
					c-13.988,11.579-25.566,23.615-34.812,35.037c-9.291,11.402-16.051,22.343-21.006,31.583c-1.201,2.339-2.313,4.56-3.332,6.658
					c-1.045,2.081-1.803,4.163-2.583,6.043c-1.395,3.507-2.489,6.532-3.131,9.189c-2.069-1.056-4.192-2.092-6.443-3.034
					c-1.518-0.677-3.061-1.365-4.627-2.063c-1.569-0.697-3.159-1.423-4.828-1.992c-3.326-1.206-6.748-2.446-10.26-3.719
					c-1.75-0.68-3.589-1.121-5.425-1.675c-1.845-0.527-3.713-1.06-5.602-1.6c-1.899-0.505-3.796-1.144-5.765-1.547
					c-1.967-0.424-3.956-0.852-5.966-1.285c-13.811-2.951-28.972-4.79-45.008-4.913C558.943,646.03,649.451,679.83,700.352,775.268z
					"/>
			</g>
			<g>
				<g>
					<path style="fill:#3190AD;" d="M870.585,1029.405c0.079,1.053,4.346,2.097,11.927,1.398c3.762-0.404,8.36-1.213,13.431-2.917
						c5.072-1.684,10.65-4.161,16.327-7.632c5.661-3.485,11.405-7.958,16.83-13.418c5.397-5.476,10.456-11.962,14.676-19.354
						c2.141-3.68,3.973-7.631,5.645-11.723c1.618-4.117,2.939-8.429,3.987-12.87c0.979-4.459,1.631-9.05,1.931-13.714
						c0.226-4.67,0.076-9.394-0.458-14.101c-0.618-4.695-1.614-9.332-2.97-13.838c-1.425-4.479-3.181-8.818-5.234-12.958
						c-2.114-4.102-4.471-8.023-7.082-11.685c-2.654-3.622-5.445-7.075-8.478-10.184c-6.014-6.267-12.669-11.441-19.444-15.514
						c-6.797-4.051-13.703-7.029-20.301-9.005c-6.609-1.959-12.895-2.916-18.466-3.151c-5.577-0.255-10.443,0.316-14.331,1.143
						c-7.817,1.779-11.647,4.676-11.195,6.821c0.463,2.304,4.809,3.151,11.584,4.391c6.772,1.247,16.122,3.159,26.396,7.709
						c5.12,2.283,10.44,5.208,15.676,8.831c5.215,3.646,10.333,8.021,14.952,13.1c2.337,2.518,4.463,5.274,6.514,8.111
						c2.005,2.872,3.811,5.904,5.458,9.034c1.583,3.16,2.953,6.432,4.105,9.783c1.08,3.371,1.915,6.815,2.505,10.301
						c0.505,3.498,0.767,7.042,0.769,10.6c-0.072,3.56-0.38,7.12-0.931,10.644c-0.622,3.514-1.431,6.989-2.486,10.375
						c-1.11,3.365-2.324,6.68-3.82,9.829c-2.927,6.324-6.579,12.122-10.577,17.229c-4.025,5.09-8.375,9.512-12.748,13.21
						c-4.386,3.683-8.782,6.639-12.863,8.997c-4.079,2.378-7.876,4.055-11.054,5.431
						C874.474,1026.932,870.475,1028.197,870.585,1029.405z"/>
				</g>
			</g>
			<g>
				<g>
					<path style="fill:#3190AD;" d="M1049.063,1026.312c0.145-0.551-0.488-1.349-1.752-2.342c-1.25-1.036-3.202-2.057-5.488-3.702
						c-4.686-2.956-11.068-7.431-17.527-13.799c-6.396-6.414-12.824-14.791-17.551-24.66c-2.351-4.941-4.17-10.244-5.578-15.671
						c-1.226-5.479-1.883-11.078-1.958-16.641c0.123-5.569,0.826-11.107,2.059-16.482c1.418-5.335,3.209-10.497,5.485-15.296
						c4.582-9.586,10.655-17.652,16.546-23.958c5.962-6.258,11.709-10.838,15.848-14.244c2.005-1.864,3.71-3.191,4.729-4.608
						c1.033-1.374,1.461-2.633,1.11-3.717c-0.351-1.084-1.427-1.789-3.216-2.125c-1.768-0.295-4.34-0.424-7.345,0.275
						c-6.136,1.072-14.519,4.549-23.091,11.041c-8.491,6.52-17.07,16.11-23.305,28.202c-3.104,6.048-5.517,12.716-7.256,19.703
						c-1.559,7.043-2.283,14.41-2.067,21.796c0.412,7.381,1.756,14.632,3.886,21.474c2.307,6.777,5.238,13.159,8.779,18.874
						c7.113,11.423,16.232,20.178,24.94,26.066c8.791,5.851,17.089,8.905,23.034,10.027c2.919,0.726,5.362,0.732,6.998,0.709
						C1047.994,1027.167,1048.918,1026.863,1049.063,1026.312z"/>
				</g>
			</g>
			<g>
				<path style="fill:#3190AD;" d="M957.375,824.209c-18.669,0-34.367-17.941-40.841-37.399c-1.953-5.872-3.456-11.987-4.908-17.902
					c-3.303-13.449-6.423-26.15-14.409-36.245c-11.481-14.512-33.082-21.335-53.756-16.977
					c-22.694,4.782-39.873,20.448-50.288,32.747l-5.94-5.029c11.202-13.228,29.771-30.096,54.623-35.333
					c23.489-4.953,48.195,2.989,61.465,19.764c9.038,11.423,12.508,25.553,15.863,39.217c1.416,5.765,2.881,11.727,4.735,17.301
					c7.973,23.964,24.903,34.073,37.524,31.687l1.449,7.647C961.03,824.039,959.188,824.209,957.375,824.209z"/>
			</g>
			<path style="fill:#61ACC9;" d="M1479.025,1070.33c-0.155-1.356-0.309-2.709-0.463-4.059c-0.154-1.349-0.293-2.697-0.551-4.025
				c-0.462-2.661-0.922-5.31-1.379-7.946c-1.18-5.217-2.304-10.388-3.893-15.375c-3.007-10.009-6.742-19.56-11.336-28.376
				c-0.558-1.108-1.115-2.212-1.67-3.312c-0.613-1.071-1.224-2.138-1.833-3.201c-1.245-2.107-2.376-4.265-3.698-6.271
				c-1.317-2.006-2.624-3.996-3.92-5.971c-1.28-1.982-2.755-3.804-4.109-5.683c-2.675-3.786-5.716-7.175-8.533-10.619
				c-1.507-1.634-3.001-3.252-4.479-4.855c-0.742-0.796-1.48-1.589-2.214-2.378c-0.771-0.751-1.538-1.499-2.301-2.243
				c-7.386-7.242-14.916-13.478-22.337-18.801c0.287-0.18,0.585-0.382,0.905-0.624c1.62-1.276,3.89-3.275,6.073-6.273
				c4.676-5.826,10.025-15.248,13.94-27.671c3.817-12.398,6.071-27.81,4.807-44.432c-0.645-8.303-2.26-16.844-4.673-25.382
				c-2.603-8.483-6.149-16.887-10.599-24.891c-4.621-7.899-10.076-15.281-16.13-21.913c-6.188-6.487-12.839-12.316-19.822-17.166
				c-13.983-9.688-28.915-15.654-42.074-18.438c-13.222-2.716-24.595-2.368-32.251-0.395c-3.527,0.744-6.283,2.059-8.2,3.344
				c-0.927-5.378-2.209-10.814-3.751-16.29c-1.579-5.686-3.613-11.353-5.872-17.026c-2.314-5.653-5.01-11.246-7.997-16.762
				c-3.052-5.482-6.448-10.849-10.157-16.056c-3.772-5.162-7.866-10.142-12.254-14.883c-4.446-4.684-9.161-9.105-14.093-13.224
				c-4.978-4.056-10.152-7.82-15.476-11.249c-5.36-3.365-10.831-6.447-16.399-9.149c-5.589-2.647-11.204-5.068-16.874-7.026
				c-5.66-1.977-11.309-3.675-16.923-4.961c-5.597-1.358-11.156-2.3-16.58-3.024c-10.866-1.366-21.245-1.572-30.738-0.875
				c-9.497,0.724-18.099,2.332-25.511,4.41c-7.423,2.058-13.632,4.69-18.511,7.259c-3.537,1.909-6.35,3.799-8.449,5.581
				c-1.186-2.271-2.409-4.543-3.673-6.816c-1.188-2.281-2.598-4.45-3.904-6.704c-1.359-2.22-2.621-4.528-4.094-6.717
				c-2.891-4.414-5.758-8.936-8.979-13.284c-1.601-2.179-3.101-4.459-4.818-6.589c-1.685-2.157-3.378-4.326-5.079-6.505
				c-1.678-2.201-3.556-4.253-5.343-6.402c-1.818-2.121-3.599-4.296-5.55-6.334c-1.919-2.07-3.845-4.148-5.779-6.235
				c-1.98-2.043-4.036-4.031-6.068-6.059l-3.073-3.03l-3.202-2.917c-2.154-1.932-4.261-3.935-6.482-5.823
				c-8.839-7.612-18.317-14.718-28.25-21.37c-10.028-6.514-20.571-12.445-31.521-17.732c-11.028-5.127-22.456-9.549-34.163-13.201
				c-11.762-3.463-23.741-6.138-35.799-8.003c-12.077-1.688-24.195-2.614-36.223-2.761c-12.022,0.021-23.936,0.678-35.608,2.124
				c-2.919,0.342-5.806,0.844-8.695,1.262c-1.443,0.22-2.884,0.44-4.322,0.66c-1.427,0.276-2.852,0.551-4.274,0.826
				c-2.841,0.568-5.682,1.088-8.49,1.699c-2.794,0.673-5.577,1.343-8.348,2.01c-2.783,0.624-5.497,1.456-8.214,2.225
				c-2.706,0.809-5.438,1.489-8.082,2.403c-2.653,0.885-5.293,1.765-7.92,2.64c-2.641,0.836-5.179,1.917-7.749,2.861
				c-5.151,1.869-10.099,4.08-15.011,6.195c-2.47,1.027-4.825,2.27-7.217,3.388c-2.365,1.175-4.771,2.225-7.051,3.49
				c-18.492,9.619-34.917,20.649-48.933,32.177c-13.988,11.579-25.566,23.615-34.812,35.037
				c-9.291,11.402-16.051,22.343-21.006,31.583c-1.201,2.339-2.313,4.56-3.332,6.658c-1.045,2.081-1.803,4.163-2.583,6.043
				c-1.395,3.507-2.489,6.532-3.131,9.189c-2.069-1.056-4.192-2.092-6.443-3.034c-1.518-0.677-3.061-1.365-4.627-2.063
				c-1.569-0.697-3.159-1.423-4.828-1.992c-3.326-1.206-6.748-2.446-10.26-3.719c-1.75-0.68-3.589-1.121-5.425-1.675
				c-1.845-0.527-3.713-1.06-5.602-1.6c-1.899-0.505-3.796-1.144-5.765-1.547c-1.967-0.424-3.956-0.852-5.966-1.285
				c-16.086-3.437-33.995-5.383-52.995-4.842c-18.983,0.53-39.061,3.561-59.027,9.806c-19.981,6.217-39.675,15.731-57.767,28.053
				c-18.113,12.31-34.672,27.402-48.827,44.465c-14.057,17.145-25.695,36.242-34.312,56.286
				c-8.634,20.028-14.212,41.04-16.546,61.676c-2.364,20.629-1.599,40.739,1.353,59.319c0.989,6.246,2.242,12.302,3.679,18.186
				c-3.693,0.253-7.99,0.83-12.878,1.839c-8.595,1.825-18.848,5.131-30.012,10.409c-11.137,5.306-23.119,12.685-34.949,22.414
				c-11.762,9.781-23.364,21.925-33.466,36.482c-10.097,14.532-18.684,31.504-24.253,50.285c-5.605,18.784-7.964,39.22-6.76,59.636
				c1.22,20.429,5.885,40.858,13.607,60.023c7.779,19.143,18.614,37.023,31.87,52.488c13.261,15.446,29.034,28.408,45.935,37.962
				c16.876,9.578,34.625,15.802,51.763,19.294c17.16,3.506,33.72,4.304,48.794,3.369c15.087-1.02,28.69-3.76,40.326-7.339
				c11.637-3.618,21.329-7.956,28.911-12.161c7.281-4.091,12.634-7.88,16.157-10.864c6.444,8.516,14.641,17.886,24.661,27.445
				c8.49,8.129,18.299,16.343,29.318,24.208c11.014,7.864,23.215,15.43,36.5,22.078c26.445,13.484,57.327,23.217,89.099,26.764
				l5.964,0.555l2.981,0.27l2.988,0.174l5.971,0.326l6.169,0.097c8.234-0.024,16.462-0.572,24.526-1.843
				c8.058-1.286,15.943-3.167,23.533-5.572c7.593-2.408,14.834-5.451,21.72-8.802c6.901-3.338,13.354-7.174,19.423-11.202
				c6.093-4.004,11.714-8.332,16.967-12.738c2.077-1.717,4.055-3.475,5.989-5.244c0.54,0.603,1.097,1.215,1.687,1.847
				c7.926,8.826,21.36,19.478,39.578,28.785c18.222,9.167,41.276,16.798,66.874,19.834c3.207,0.295,6.441,0.593,9.699,0.893
				l2.45,0.207l2.468,0.072c1.649,0.044,3.303,0.089,4.962,0.133c1.66,0.039,3.325,0.078,4.994,0.117
				c1.669,0.076,3.345-0.084,5.024-0.119c3.359-0.146,6.734-0.292,10.123-0.439c13.538-1.135,27.192-3.552,40.535-7.242
				c13.266-3.969,26.087-9.171,38.114-15.371c2.938-1.667,5.865-3.328,8.776-4.98c1.435-0.857,2.931-1.604,4.301-2.55
				c1.388-0.914,2.772-1.825,4.152-2.733c1.376-0.911,2.747-1.82,4.114-2.725l2.042-1.359l1.958-1.464
				c2.589-1.964,5.159-3.914,7.708-5.848c1.967-1.574,3.876-3.177,5.755-4.794c1.219,1.916,3.405,4.042,6.508,6.319
				c5.901,4.217,15.117,8.82,26.98,12.668c11.85,3.846,26.347,6.834,42.362,8.108c16.01,1.354,33.511,0.749,51.163-1.772
				c8.809-1.359,17.691-3.024,26.395-5.379c4.382-1.052,8.667-2.472,12.97-3.734c2.124-0.726,4.243-1.451,6.358-2.175l3.159-1.103
				l3.114-1.203c8.326-3.094,16.275-6.828,23.894-10.63c1.878-1.007,3.744-2.007,5.595-3c0.921-0.501,1.839-1.001,2.753-1.499
				c0.898-0.529,1.792-1.056,2.682-1.58c1.774-1.054,3.532-2.1,5.274-3.135c1.701-1.102,3.386-2.193,5.053-3.272
				c13.279-8.71,24.423-18.068,32.989-26.755c3.799-3.839,7.062-7.527,9.869-10.966c1.009,0.21,2.019,0.42,3.033,0.63
				c1.276,0.247,2.576,0.387,3.869,0.584c2.594,0.362,5.201,0.725,7.822,1.09l1.97,0.269l2.005,0.173
				c1.339,0.113,2.681,0.226,4.027,0.34c2.692,0.166,5.401,0.293,8.122,0.373c2.718,0,5.456,0.109,8.194-0.014
				c21.931-0.494,44.432-5.023,65.759-13.679l3.994-1.646l3.945-1.788c2.649-1.154,5.207-2.526,7.812-3.801
				c5.125-2.727,10.215-5.578,15.098-8.809c9.841-6.33,19.06-13.784,27.472-22.114c8.389-8.352,15.881-17.692,22.195-27.757
				c1.522-2.554,3.107-5.063,4.471-7.703c0.696-1.311,1.427-2.601,2.086-3.929l1.928-4.006c0.667-1.324,1.23-2.689,1.786-4.055
				l1.681-4.088c1.187-2.699,2.055-5.501,2.986-8.273c3.652-11.108,5.985-22.471,7.127-33.754
				C1480.271,1092.38,1480.137,1081.191,1479.025,1070.33z M1451.575,1100.532c-1.354,9.328-3.648,18.568-6.922,27.458
				c-0.836,2.216-1.593,4.468-2.64,6.597l-1.458,3.242c-0.477,1.085-0.956,2.17-1.531,3.206l-1.637,3.153
				c-0.557,1.045-1.183,2.057-1.768,3.089c-1.141,2.081-2.491,4.049-3.755,6.064c-5.293,7.921-11.503,15.305-18.469,21.96
				c-6.99,6.631-14.639,12.632-22.851,17.756c-4.063,2.624-8.323,4.933-12.596,7.17c-2.184,1.033-4.309,2.172-6.531,3.111
				l-3.296,1.473l-3.343,1.353c-17.837,7.149-36.675,11.012-54.89,11.676c-2.279,0.145-4.545,0.071-6.803,0.12
				c-2.255-0.031-4.5-0.095-6.731-0.186c-1.113-0.072-2.224-0.144-3.331-0.215l-1.661-0.103l-1.667-0.198
				c-2.222-0.257-4.433-0.513-6.631-0.767c-1.099-0.138-2.202-0.216-3.289-0.399c-1.086-0.198-2.168-0.396-3.248-0.592
				c-2.162-0.386-4.312-0.77-6.448-1.151c-2.135-0.398-4.218-1.006-6.313-1.486c-2.084-0.53-4.18-0.961-6.223-1.549
				c-16.38-4.628-31.357-11.156-44.608-18.39c-13.245-7.262-24.865-15.106-34.717-22.742c-2.506-1.858-4.779-3.846-7.084-5.649
				c-1.146-0.913-2.27-1.81-3.374-2.69c-1.064-0.927-2.108-1.836-3.131-2.727c-2.075-1.77-4.065-3.469-5.967-5.091
				c-1.833-1.698-3.602-3.308-5.304-4.825c-3.471-2.978-6.376-5.837-9.082-8.209c-1.341-1.195-2.641-2.264-3.812-3.265
				c-1.143-1.022-2.217-1.931-3.218-2.722c-4.003-3.163-6.839-4.445-8.247-3.477s-1.119,4.021,0.739,8.99
				c0.464,1.242,1.026,2.603,1.684,4.08c0.685,1.456,1.525,2.982,2.434,4.64c1.842,3.296,3.993,7.095,6.832,11.034
				c1.385,1.998,2.868,4.093,4.447,6.28c1.661,2.112,3.437,4.297,5.301,6.575c0.938,1.136,1.895,2.295,2.87,3.477
				c1.036,1.128,2.091,2.277,3.166,3.447c2.183,2.31,4.365,4.805,6.82,7.174c9.64,9.676,21.625,19.607,35.909,28.854
				c14.287,9.212,30.995,17.629,49.837,23.74c1.694,0.557,3.427,1.035,5.166,1.518c-1.022,0.668-2.059,1.343-3.131,2.027
				c-9.577,6.14-21.13,12.827-34.17,19.036c-1.628,0.773-3.273,1.555-4.935,2.344c-1.684,0.736-3.385,1.479-5.1,2.228
				c-0.854,0.377-1.712,0.755-2.573,1.136c-0.874,0.353-1.751,0.706-2.632,1.061c-1.757,0.71-3.527,1.426-5.308,2.146
				c-7.205,2.687-14.592,5.39-22.246,7.584l-2.855,0.871l-2.891,0.784c-1.926,0.523-3.858,1.048-5.792,1.574
				c-3.915,0.88-7.785,1.953-11.735,2.699c-7.839,1.743-15.777,2.958-23.611,4.054c-15.703,1.991-31.124,2.831-45.363,2.558
				c-14.244-0.198-27.3-1.268-38.451-2.438c-11.152-1.17-20.42-2.358-27.245-2.483c-0.833-0.026-1.629-0.034-2.388-0.022
				c12.972-12.532,23.466-25.828,31.419-38.394c10.708-17.163,16.906-32.863,19.793-44.155c0.375-1.404,0.729-2.733,1.063-3.983
				c0.344-1.242,0.486-2.475,0.692-3.589c0.368-2.245,0.613-4.165,0.731-5.742c0.237-3.153-0.032-4.928-0.847-5.187
				c-0.815-0.259-2.175,0.996-3.984,3.524c-0.904,1.264-1.921,2.846-3.037,4.718c-0.581,0.927-1.091,1.964-1.797,3.002
				c-0.668,1.049-1.379,2.164-2.129,3.342c-5.67,9.514-14.15,22.714-26.083,36.818c-12.022,14.006-27.625,28.829-46.392,41.455
				c-2.377,1.521-4.774,3.054-7.189,4.599l-1.81,1.157l-1.883,1.052c-1.254,0.705-2.512,1.411-3.774,2.12
				c-1.257,0.712-2.518,1.425-3.783,2.141c-1.243,0.751-2.601,1.303-3.897,1.968c-2.615,1.281-5.243,2.569-7.882,3.862
				c-10.745,4.748-21.951,8.68-33.36,11.694c-11.487,2.733-23.162,4.544-34.761,5.445c-2.907,0.111-5.803,0.221-8.685,0.331
				c-1.441,0.028-2.875,0.187-4.311,0.116c-1.435-0.029-2.867-0.058-4.294-0.087c-1.427-0.023-2.85-0.047-4.268-0.07l-2.124-0.028
				l-2.113-0.154c-2.813-0.203-5.606-0.405-8.376-0.605c-22.146-2.105-42.433-7.429-59.343-13.461
				c-16.788-6.134-30.322-12.843-40.108-17.538c3.236-3.433,6.299-6.836,9.11-10.251c15.082-18.027,24.833-34.77,30.863-46.773
				c5.954-12.073,8.164-19.515,6.727-20.349c-1.516-0.885-6.686,4.83-15.179,14.826c-8.55,9.925-20.459,24.241-36.449,39.151
				c-3.958,3.761-8.263,7.443-12.734,11.178c-4.545,3.641-9.253,7.36-14.318,10.793c-5.034,3.472-10.305,6.84-15.869,9.869
				c-5.545,3.056-11.314,5.918-17.342,8.313c-6.017,2.411-12.219,4.557-18.615,6.161c-6.395,1.601-12.94,2.78-19.579,3.505
				c-6.643,0.71-13.385,0.84-20.14,0.596l-5.082-0.272l-5.266-0.479l-2.633-0.239l-2.626-0.328l-5.251-0.646
				c-27.958-3.965-55.131-12.709-79.09-24.31c-12.027-5.708-23.254-12.123-33.618-18.691c-10.369-6.569-19.854-13.344-28.375-19.952
				c-17.079-13.191-30.364-25.554-40.115-34.035c-9.725-8.499-16.116-13.08-18.96-11.078c-2.746,1.926-0.824,9.847,5.953,21.754
				c2.094,3.657,4.668,7.685,7.723,11.98c-4.172,1.507-9.853,3.667-16.996,6.011c-7.775,2.511-17.31,5.08-28.352,6.979
				c-11.046,1.861-23.625,2.938-37.236,2.535c-13.6-0.484-28.23-2.464-43.029-6.654c-14.785-4.174-29.725-10.573-43.554-19.486
				c-13.817-8.875-26.499-20.355-37.195-33.845c-10.671-13.5-19.358-28.913-25.558-45.231c-6.143-16.341-9.789-33.562-10.719-50.561
				c-0.902-17.014,0.974-33.722,5.312-49.181c4.326-15.502,11.043-29.847,19.032-42.483c7.99-12.656,17.232-23.605,26.642-32.851
				c9.475-9.193,19.107-16.695,28.116-22.722c9.031-5.996,17.384-10.62,24.446-14.254c4.016-2.046,7.587-3.812,10.654-5.383
				c2.155,7.072,4.568,13.839,7.189,20.224c0.775,1.881,1.541,3.743,2.299,5.584c0.737,1.848,1.691,3.583,2.514,5.345
				c0.853,1.747,1.697,3.474,2.53,5.18c0.857,1.693,1.602,3.41,2.565,4.998c1.837,3.207,3.628,6.331,5.368,9.369
				c0.836,1.533,1.81,2.96,2.751,4.374c0.941,1.412,1.867,2.802,2.778,4.171c3.507,5.553,7.474,10.288,10.914,14.772
				c0.437,0.556,0.869,1.106,1.296,1.651c0.462,0.519,0.92,1.032,1.372,1.54c0.909,1.01,1.798,1.997,2.667,2.963
				c1.746,1.911,3.411,3.734,4.991,5.464c3.315,3.318,6.44,6.112,9.115,8.549c0.676,0.602,1.327,1.181,1.952,1.737
				c0.67,0.511,1.311,1.002,1.925,1.47c1.234,0.928,2.366,1.755,3.394,2.476c4.111,2.885,6.546,4.092,7.124,3.464
				c0.579-0.629-0.694-3.094-3.53-7.094c-0.709-1-1.516-2.096-2.416-3.283c-0.452-0.59-0.926-1.207-1.419-1.85
				c-0.46-0.672-0.938-1.372-1.435-2.1c-1.978-2.909-4.37-6.121-6.917-9.789c-1.209-1.88-2.482-3.861-3.818-5.939
				c-0.672-1.029-1.359-2.082-2.061-3.158c-0.351-0.536-0.706-1.078-1.065-1.626c-0.326-0.571-0.655-1.148-0.987-1.731
				c-2.614-4.69-5.721-9.541-8.355-15.124c-0.696-1.37-1.402-2.761-2.12-4.174c-0.72-1.409-1.473-2.824-2.088-4.341
				c-1.307-2.98-2.652-6.046-4.032-9.193c-0.739-1.545-1.262-3.215-1.896-4.853c-0.613-1.646-1.234-3.311-1.862-4.996
				c-0.6-1.694-1.332-3.354-1.848-5.12c-0.54-1.754-1.086-3.528-1.638-5.32c-4.428-14.298-7.856-30.17-9.366-47.085
				c-1.52-16.899-1.109-34.834,1.902-52.855c2.983-18.007,8.652-36.097,16.84-53.361c8.171-17.263,18.828-33.669,31.414-48.39
				c12.685-14.639,27.272-27.558,42.99-38.131c15.718-10.591,32.532-18.794,49.584-24.383c17.066-5.619,34.378-8.717,50.949-9.841
				c16.585-1.135,32.42-0.304,46.892,1.66c1.813,0.241,3.608,0.48,5.383,0.716c1.783,0.208,3.499,0.646,5.225,0.947
				c1.723,0.327,3.425,0.651,5.107,0.97c1.678,0.339,3.37,0.562,4.976,1.018c3.253,0.797,6.422,1.573,9.503,2.328
				c1.561,0.33,3.047,0.813,4.521,1.263c1.479,0.444,2.935,0.882,4.369,1.313c5.815,1.551,11.01,3.667,15.989,5.301
				c0.621,0.21,1.235,0.418,1.843,0.624c0.591,0.241,1.176,0.48,1.755,0.716c1.164,0.468,2.302,0.926,3.414,1.373
				c2.234,0.887,4.382,1.717,6.44,2.487c4.023,1.7,7.603,3.304,10.852,4.535c0.815,0.307,1.6,0.602,2.354,0.886
				c0.737,0.315,1.443,0.617,2.119,0.906c1.364,0.565,2.632,1.049,3.797,1.449c4.662,1.598,7.698,1.854,8.733,0.493
				c1.034-1.36-0.141-4.097-3.377-8.115c-0.809-1.004-1.746-2.087-2.809-3.248c-0.539-0.573-1.102-1.172-1.689-1.797
				c-0.63-0.567-1.286-1.157-1.967-1.77c-2.762-2.405-5.983-5.172-9.779-8.016c-1.942-1.341-4.009-2.737-6.196-4.185
				c-1.098-0.72-2.222-1.457-3.37-2.21c-0.578-0.373-1.162-0.75-1.753-1.13c-0.611-0.341-1.228-0.686-1.851-1.034
				c-0.52-0.282-1.062-0.585-1.59-0.876c1.72-1.954,3.808-4.253,6.094-6.994c1.263-1.469,2.475-3.127,3.946-4.778
				c1.445-1.667,2.952-3.445,4.518-5.331c6.415-7.435,14.128-16.391,23.838-25.754c9.666-9.385,21.126-19.331,34.498-28.944
				c13.403-9.563,28.72-18.754,45.688-26.816c2.089-1.07,4.299-1.93,6.461-2.919c2.188-0.932,4.335-1.994,6.589-2.845
				c4.481-1.762,8.974-3.641,13.646-5.198c2.331-0.788,4.625-1.72,7.014-2.411c2.372-0.738,4.756-1.479,7.151-2.224
				c2.384-0.782,4.846-1.334,7.28-2.022c2.445-0.648,4.883-1.366,7.381-1.881c2.485-0.566,4.98-1.134,7.486-1.705
				c2.515-0.516,5.057-0.948,7.596-1.434c1.271-0.236,2.544-0.472,3.82-0.709c1.283-0.184,2.569-0.369,3.856-0.553
				c2.577-0.351,5.152-0.793,7.751-1.083c10.394-1.235,20.961-1.803,31.602-1.871c10.64,0.101,21.328,0.842,31.976,2.198
				c10.62,1.532,21.161,3.724,31.53,6.56c10.314,3.024,20.451,6.689,30.316,10.966c9.795,4.441,19.311,9.435,28.454,14.957
				c9.053,5.667,17.787,11.731,26.021,18.282c2.069,1.622,4.036,3.361,6.055,5.025l3.006,2.514l2.891,2.628
				c1.914,1.76,3.86,3.477,5.738,5.251c1.84,1.816,3.673,3.625,5.499,5.427c1.864,1.767,3.569,3.674,5.316,5.526
				c1.716,1.88,3.53,3.662,5.154,5.596c1.653,1.911,3.298,3.813,4.935,5.705c1.676,1.863,3.143,3.879,4.717,5.794
				c3.167,3.821,6.009,7.821,8.901,11.72c1.473,1.932,2.742,3.984,4.115,5.951c1.32,2,2.75,3.918,3.964,5.949
				c10.196,15.968,18.342,32.059,24.589,47.463c6.195,15.43,10.511,30.139,13.508,43.394c3.046,13.26,4.518,25.085,5.597,34.873
				c0.236,2.456,0.46,4.78,0.671,6.968c0.255,2.194,0.28,4.251,0.443,6.172c0.266,3.843,0.591,7.135,0.712,9.808
				c0.373,5.354,0.971,8.299,1.82,8.393c0.849,0.094,1.952-2.665,3.274-8.009c0.725-2.668,1.245-5.998,1.815-9.937
				c0.255-1.97,0.647-4.092,0.804-6.364c0.175-2.278,0.36-4.698,0.556-7.256c0.54-10.239,0.618-22.809-1.054-37.121
				c-1.624-14.305-4.746-30.373-10.041-47.41c-3.59-11.42-8.194-23.264-13.838-35.249c2.301,0.006,4.959-0.12,7.947-0.318
				c9.89-0.64,23.529-1.83,39.644-0.859c8.048,0.505,16.69,1.555,25.659,3.346c4.476,0.938,9.048,1.989,13.635,3.349
				c4.605,1.288,9.221,2.878,13.844,4.636c18.476,7.048,36.751,18.1,51.465,32.77c14.775,14.603,26.068,32.943,33.215,51.644
				c1.783,4.677,3.391,9.358,4.684,14.032c1.365,4.657,2.41,9.302,3.327,13.857c1.751,9.124,2.702,17.932,3.037,26.127
				c0.634,16.409-1.185,30.246-2.74,40.004c-1.576,9.766-2.641,15.623-1.018,16.363c1.476,0.685,5.709-3.797,10.617-13.232
				c4.861-9.401,10.124-23.954,12.358-42.363c1.095-9.185,1.42-19.287,0.68-29.965c-0.159-2.056-0.359-4.14-0.587-6.237
				c1.651,0.915,3.67,1.735,6.018,2.744c6.458,2.418,15.315,5.196,25.3,9.412c9.944,4.298,21.024,10.131,31.554,18.076
				c5.255,3.984,10.27,8.544,15.062,13.435c4.646,5.026,8.928,10.463,12.74,16.216c3.639,5.858,6.817,12.05,9.46,18.44
				c2.456,6.458,4.51,13.025,5.901,19.589c2.757,13.13,3.205,25.975,2.471,37.036c-0.822,11.06-2.733,20.363-4.2,27.006
				c-0.574,3.404-1.278,6.022-1.382,8.047c-0.016,0.215-0.024,0.419-0.03,0.618c-3.588-2.443-7.144-4.696-10.631-6.712
				c-11.81-6.854-22.693-11.611-31.895-14.693c-2.262-0.862-4.498-1.436-6.555-2.071c-2.078-0.583-3.984-1.223-5.833-1.603
				c-3.676-0.814-6.767-1.552-9.352-1.863c-5.158-0.66-7.968-0.606-8.19,0.219c-0.223,0.825,2.136,2.422,6.666,4.656
				c2.271,1.098,5.006,2.604,8.266,4.152c1.641,0.747,3.326,1.746,5.165,2.678c1.819,0.984,3.801,1.896,5.792,3.084
				c8.118,4.384,17.635,10.252,27.773,17.839c10.149,7.562,20.73,17.153,30.701,28.778c0.626,0.722,1.256,1.449,1.889,2.179
				c0.595,0.761,1.193,1.525,1.794,2.294c1.199,1.532,2.41,3.08,3.633,4.642c2.242,3.272,4.712,6.458,6.802,9.976
				c1.062,1.745,2.25,3.429,3.237,5.252c1.008,1.806,2.025,3.627,3.049,5.461c1.034,1.826,1.865,3.766,2.821,5.656
				c0.465,0.951,0.932,1.905,1.4,2.862c0.414,0.984,0.829,1.972,1.246,2.963c3.469,7.855,6.163,16.29,8.247,25.016
				c1.128,4.346,1.821,8.835,2.606,13.329c0.27,2.266,0.542,4.542,0.814,6.828c0.168,1.138,0.22,2.291,0.29,3.443
				c0.073,1.151,0.145,2.305,0.218,3.461C1453.155,1081.788,1452.828,1091.188,1451.575,1100.532z"/>
			<ellipse style="fill:#1B1B4C;" cx="969.326" cy="949.987" rx="20.69" ry="41.381"/>
			<ellipse style="fill:#3E3E7C;" cx="870.472" cy="802.855" rx="20.69" ry="41.381"/>
			<ellipse style="fill:#3E3E7C;" cx="1011.659" cy="828.305" rx="23.941" ry="20.529"/>
			<path style="fill:#FFFFFF;" d="M875.893,805.701c-9.182,0-9.197,14.27,0,14.27C885.075,819.971,885.09,805.701,875.893,805.701z"
				/>
			<path style="fill:#FFFFFF;" d="M1023.024,817.196c-9.182,0-9.197,14.27,0,14.27
				C1032.206,831.466,1032.221,817.196,1023.024,817.196z"/>
		</g>
		<g>
			<g>
				<path style="fill:#276689;" d="M993.301,1058.187c-9.451-16.671-15.401-27.774-18.971-33.442
					c-3.531-5.689-4.65-5.97-3.609-1.433c1.032,4.539,4.231,13.897,9.765,27.267c5.554,13.357,13.469,30.727,24.31,51.01
					c5.436,10.131,11.54,21.024,18.614,32.386c1.784,2.832,3.599,5.712,5.442,8.637c0.923,1.462,1.854,2.936,2.792,4.421
					c0.941,1.483,1.866,2.993,2.892,4.452c4.033,5.88,8.125,11.983,12.468,18.157c17.541,24.566,38.865,50.475,64.394,75.884
					c3.211,3.155,6.381,6.409,9.709,9.555c3.377,3.096,6.783,6.218,10.215,9.365c1.718,1.572,3.442,3.151,5.173,4.735
					c1.79,1.519,3.588,3.043,5.391,4.573c3.618,3.051,7.262,6.124,10.932,9.219c15.041,11.937,30.817,23.904,47.996,34.636
					c8.411,5.639,17.398,10.576,26.328,15.798l1.68,0.972c0.566,0.314,1.148,0.602,1.721,0.904l3.458,1.796
					c2.309,1.198,4.623,2.398,6.943,3.601c2.321,1.202,4.646,2.406,6.978,3.614c1.154,0.627,2.363,1.146,3.556,1.702l3.593,1.65
					c4.797,2.199,9.615,4.407,14.453,6.624c4.942,1.982,9.904,3.971,14.884,5.968c2.5,0.978,4.97,2.032,7.507,2.949
					c2.543,0.904,5.09,1.81,7.642,2.718c2.541,0.94,5.143,1.712,7.72,2.572c2.586,0.833,5.163,1.711,7.786,2.454
					c41.715,12.678,86.47,19.178,131.581,18.244c45.073-0.898,90.559-9.295,132.753-25.874c2.656-0.979,5.239-2.148,7.859-3.213
					l3.914-1.635c1.3-0.555,2.578-1.164,3.867-1.743c2.567-1.183,5.152-2.322,7.698-3.543c2.529-1.256,5.057-2.511,7.582-3.766
					l1.893-0.942l1.862-1.003l3.72-2.006c2.482-1.331,4.963-2.658,7.374-4.108c2.426-1.423,4.849-2.844,7.27-4.264
					c2.375-1.498,4.747-2.995,7.117-4.491c9.442-6.017,18.564-12.594,27.224-19.786c8.661-7.181,16.822-15.041,24.147-23.651
					c3.662-4.32,7.131-8.733,10.326-13.479c3.173-4.72,6.11-9.568,8.684-14.573c2.56-5.01,4.874-10.114,6.854-15.318
					c1.951-5.214,3.66-10.488,5.045-15.823c5.523-21.335,6.321-43.465,2.315-64.344c-3.981-20.876-12.943-40.424-26.099-56.071
					l-2.516-2.881c-0.836-0.959-1.75-1.84-2.62-2.758c-1.723-1.857-3.617-3.519-5.437-5.241c-0.934-0.833-1.902-1.625-2.849-2.434
					c-0.945-0.813-1.9-1.608-2.896-2.347c-0.984-0.753-1.965-1.506-2.945-2.256c-1.011-0.705-2.02-1.409-3.027-2.111l-1.512-1.047
					l-1.551-0.979c-1.034-0.648-2.066-1.295-3.096-1.941c-1.056-0.599-2.111-1.197-3.163-1.794l-1.578-0.89l-1.609-0.822
					c-1.073-0.543-2.143-1.086-3.211-1.627c-1.089-0.495-2.176-0.99-3.261-1.483c-2.152-1.024-4.388-1.826-6.569-2.722
					c-8.837-3.31-17.867-5.57-26.855-6.82c-9-1.186-17.952-1.38-26.637-0.572c-8.681,0.871-17.082,2.734-24.949,5.529
					c-7.88,2.766-15.159,6.612-21.679,11.111c-6.537,4.511-12.257,9.861-16.992,15.622c-4.752,5.766-8.578,11.937-11.592,18.197
					c-6.03,12.549-8.846,25.362-9.602,37.156c-0.405,5.907-0.156,11.588,0.429,16.941c0.246,2.683,0.752,5.27,1.173,7.789
					c0.583,2.496,1.061,4.937,1.793,7.25c2.625,9.329,6.635,17.035,10.842,23.064c4.227,6.046,8.42,9.961,11.62,12.57
					c3.25,2.582,5.623,3.793,6.833,4.232c1.22,0.427,1.371-0.025,0.579-1.249c-0.397-0.612-1.03-1.417-1.89-2.399
					c-0.845-0.999-1.807-2.295-3.026-3.713c-2.269-2.998-5.191-6.903-7.977-12.127c-2.79-5.208-5.435-11.72-7.279-19.492
					c-1.781-7.776-2.728-16.839-2-26.746c0.739-9.874,3.026-20.638,7.778-31.134c4.698-10.471,11.819-20.709,21.633-28.607
					c1.223-0.987,2.528-1.877,3.791-2.842c1.348-0.884,2.718-1.774,4.102-2.647c1.443-0.785,2.843-1.661,4.333-2.404
					c0.747-0.368,1.496-0.737,2.247-1.107l1.129-0.556l1.166-0.492c6.189-2.702,12.905-4.703,19.974-5.903
					c7.084-1.139,14.504-1.481,22.061-0.992c7.557,0.515,15.233,1.944,22.82,4.167c7.565,2.297,15.039,5.433,22.125,9.468
					c7.054,4.074,13.792,8.948,19.719,14.766c11.887,11.428,20.803,26.841,25.619,43.995c4.851,17.154,5.687,36.059,2.439,54.624
					c-3.236,18.554-10.556,36.834-21.818,52.473c-5.687,7.879-12.336,15.309-19.694,22.178
					c-7.348,6.888-15.364,13.287-23.853,19.245c-4.241,2.98-8.587,5.885-13.05,8.623c-4.393,2.849-8.972,5.415-13.51,8.066
					c-9.205,5.078-18.637,9.826-28.327,14.089c-9.719,4.19-19.619,8.039-29.717,11.38c-10.116,3.277-20.365,6.213-30.752,8.631
					c-41.555,9.693-84.845,11.987-126.738,7.839c-10.474-1.055-20.882-2.412-31.147-4.278c-2.572-0.437-5.138-0.885-7.682-1.425
					c-2.55-0.515-5.096-1.029-7.639-1.542c-5.05-1.18-10.117-2.241-15.094-3.585c-10.006-2.499-19.817-5.474-29.456-8.699
					c-2.404-0.826-4.803-1.651-7.197-2.473c-2.366-0.913-4.726-1.824-7.082-2.734c-4.705-1.839-9.417-3.607-14.064-5.477
					c-36.869-15.717-70.643-35.205-99.982-57.113c-29.459-21.753-55.021-45.132-76.663-68.17c-2.656-2.927-5.282-5.82-7.876-8.678
					c-1.298-1.429-2.588-2.849-3.87-4.261c-1.272-1.42-2.587-2.788-3.777-4.248c-4.838-5.77-9.644-11.322-14.164-16.843
					c-4.414-5.61-8.7-11.057-12.852-16.333c-3.976-5.415-7.823-10.654-11.534-15.708c-0.464-0.632-0.926-1.262-1.385-1.888
					c-0.438-0.641-0.875-1.279-1.309-1.915c-0.869-1.271-1.73-2.529-2.583-3.775c-1.707-2.493-3.381-4.937-5.021-7.331
					c-3.316-4.766-6.361-9.429-9.224-13.908c-5.741-8.95-10.752-17.174-15.104-24.51
					C1003.082,1075.838,997.025,1064.715,993.301,1058.187z"/>
			</g>
			<g>
				<path style="fill:#276689;" d="M1304.166,1402.792c-2.989-1.015-5.734-1.926-8.239-2.736c-1.261-0.386-2.433-0.81-3.541-1.219
					c-1.115-0.395-2.168-0.768-3.161-1.12c-3.983-1.383-7.046-2.33-9.229-2.862c-4.366-1.063-5.21-0.46-2.882,1.635
					c4.702,4.025,21.722,15.11,50.092,26.514c3.565,1.365,7.282,2.788,11.142,4.267c1.94,0.715,3.892,1.523,5.927,2.195
					c2.037,0.671,4.109,1.354,6.217,2.048c2.111,0.69,4.256,1.392,6.436,2.104c2.184,0.701,4.388,1.47,6.676,2.065
					c4.56,1.262,9.255,2.562,14.078,3.897c19.402,4.919,41.237,9.085,64.976,11.455c23.728,2.379,49.356,2.96,76.043,0.96
					c3.334-0.272,6.687-0.546,10.057-0.821l2.531-0.212l2.527-0.315c1.687-0.211,3.378-0.423,5.074-0.636
					c3.391-0.428,6.798-0.859,10.222-1.291c3.416-0.487,6.824-1.136,10.26-1.704c3.432-0.598,6.883-1.159,10.339-1.8
					c3.445-0.727,6.915-1.405,10.376-2.187c3.45-0.827,6.933-1.578,10.389-2.484c1.729-0.452,3.46-0.904,5.195-1.358
					c1.737-0.443,3.471-0.911,5.195-1.425c27.688-7.815,55.251-18.847,81.404-33.151c26.119-14.341,50.795-32.023,72.484-52.699
					c21.666-20.679,40.178-44.482,54.167-70.026c0.914-1.573,1.724-3.202,2.556-4.814c0.828-1.614,1.655-3.225,2.481-4.833
					c1.605-3.24,3.078-6.534,4.608-9.78c1.416-3.32,2.796-6.65,4.155-9.963c1.219-3.369,2.485-6.704,3.636-10.061
					c4.515-13.46,7.708-27.059,9.735-40.496c4.031-26.889,3.508-53.086-0.463-76.937c-1.97-11.932-4.761-23.29-8.163-33.941
					c-0.436-1.328-0.869-2.649-1.301-3.963c-0.423-1.316-0.858-2.619-1.36-3.893c-0.966-2.557-1.922-5.085-2.867-7.585
					c-1.054-2.454-2.096-4.88-3.125-7.277c-0.259-0.598-0.516-1.193-0.773-1.787c-0.282-0.583-0.563-1.165-0.844-1.745
					c-0.562-1.158-1.12-2.308-1.674-3.451c-0.555-1.141-1.107-2.274-1.655-3.4c-0.596-1.103-1.188-2.198-1.777-3.286
					c-1.202-2.161-2.307-4.329-3.547-6.388c-1.25-2.048-2.482-4.067-3.695-6.056c-0.59-1.002-1.233-1.963-1.886-2.906
					c-0.645-0.947-1.284-1.887-1.919-2.82c-2.461-3.774-5.205-7.181-7.728-10.531c-1.282-1.661-2.669-3.198-3.961-4.75
					c-1.331-1.523-2.541-3.086-3.913-4.467c-10.513-11.438-20.743-19.447-29.035-24.781c-2.111-1.292-3.996-2.417-5.666-3.382
					c-0.418-0.239-0.822-0.47-1.212-0.694c-0.406-0.2-0.797-0.393-1.173-0.579c-0.76-0.358-1.461-0.688-2.104-0.99
					c-2.589-1.177-4.319-1.788-5.264-1.88c-1.887-0.183-0.642,1.71,3.239,5.326c3.884,3.608,10.203,9.275,17.865,17.375
					c7.644,8.109,16.47,18.87,24.976,32.577c1.047,1.722,2.047,3.518,3.104,5.316c0.525,0.901,1.054,1.809,1.587,2.725
					c0.493,0.94,0.99,1.887,1.491,2.842c0.988,1.917,2.036,3.838,3.026,5.827c0.944,2.014,1.902,4.057,2.873,6.129
					c3.739,8.357,7.234,17.394,10.197,27.097c5.797,19.429,9.622,41.452,9.979,64.987c0.37,23.501-2.725,48.511-10.377,73.052
					c-3.822,12.293-8.801,24.29-14.963,36.163c-6.122,11.838-13.274,23.353-21.347,34.371
					c-16.103,22.084-36.055,41.982-58.221,59.082c-22.159,17.144-46.625,31.385-71.899,42.674
					c-25.282,11.303-51.393,19.66-77.136,25.172c-25.807,5.493-51.207,8.356-75.248,9.23c-24.048,0.872-46.753-0.19-67.371-2.62
					c-1.291-0.137-2.579-0.239-3.851-0.402c-1.27-0.18-2.532-0.359-3.787-0.537c-2.511-0.354-4.991-0.705-7.439-1.051
					c-2.447-0.358-4.874-0.655-7.25-1.047c-2.37-0.432-4.707-0.859-7.011-1.279c-2.306-0.418-4.579-0.831-6.818-1.237
					c-1.12-0.202-2.232-0.403-3.335-0.603c-1.098-0.223-2.178-0.481-3.255-0.717c-4.308-0.958-8.475-1.886-12.496-2.78
					c-1.004-0.232-2.009-0.423-2.986-0.681c-0.977-0.259-1.945-0.515-2.904-0.77c-1.919-0.507-3.8-1.003-5.644-1.49
					c-1.845-0.485-3.653-0.959-5.42-1.423c-1.767-0.468-3.508-0.887-5.167-1.429c-3.342-1.017-6.526-1.985-9.543-2.902
					c-1.512-0.455-2.982-0.897-4.41-1.327c-0.714-0.216-1.417-0.428-2.11-0.637c-0.683-0.236-1.356-0.468-2.018-0.696
					c-5.297-1.824-9.927-3.388-13.829-4.671c-1.966-0.605-3.674-1.323-5.235-1.865
					C1306.704,1403.672,1305.338,1403.19,1304.166,1402.792z"/>
			</g>
			<g>
				<path style="fill:#276689;" d="M1597.498,997.537c0.844-0.064,1.657-0.154,2.433-0.202c0.777-0.039,1.517-0.077,2.222-0.112
					c1.416-0.082,2.699-0.178,3.852-0.287c2.293-0.144,4.055-0.299,5.312-0.571c2.512-0.526,2.978-1.368,1.517-2.505
					c-1.464-1.101-4.824-2.689-10.017-4.017c-0.649-0.172-1.324-0.352-2.024-0.537c-0.703-0.169-1.438-0.301-2.197-0.454
					c-1.519-0.297-3.146-0.597-4.876-0.9c-3.468-0.441-7.354-0.932-11.622-1.07c-8.529-0.367-18.589,0.156-29.614,2.168
					c-11.011,2.032-22.946,5.614-35.113,10.932c-6.078,2.673-12.182,5.821-18.303,9.331c-6.068,3.593-12.121,7.587-18.074,11.994
					c-5.915,4.453-11.716,9.324-17.338,14.58c-5.631,5.248-10.983,10.98-16.113,17.026c-10.271,12.068-19.294,25.833-26.554,40.547
					c-3.532,7.399-6.859,14.946-9.47,22.78c-1.433,3.866-2.514,7.863-3.69,11.815c-0.59,1.976-1.003,4.009-1.507,6.009
					c-0.464,2.012-1.013,3.998-1.349,6.041c-0.376,2.03-0.752,4.059-1.128,6.085c-0.205,1.008-0.339,2.032-0.467,3.057l-0.399,3.066
					c-0.618,4.068-0.837,8.193-1.13,12.279l-0.099,1.533l-0.021,1.541l-0.038,3.074l-0.032,3.065l-0.011,1.529l0.075,1.532
					c0.105,2.039,0.211,4.074,0.315,6.103l0.082,1.518l0.17,1.516l0.354,3.022c0.818,8.052,2.687,15.906,4.9,23.465
					c0.649,1.866,1.295,3.724,1.938,5.573c0.329,0.921,0.635,1.846,0.983,2.755c0.39,0.894,0.779,1.786,1.167,2.676
					c0.781,1.772,1.559,3.536,2.333,5.292c0.842,1.739,1.751,3.473,2.67,5.159c7.564,13.44,17.648,24.238,28.418,32.246
					c10.77,8.045,22.201,13.405,32.971,16.409c10.776,3.063,20.9,3.601,29.291,2.776c8.423-0.924,15.108-3.192,19.79-5.667
					c4.688-2.5,6.842-4.647,7.296-5.79c0.44-1.17-0.894-1.553-3.595-1.289c-2.731,0.174-6.881,0.954-12.394,1.224
					c-2.76,0.089-5.83,0.218-9.217-0.027c-1.687-0.039-3.455-0.297-5.284-0.455c-1.831-0.285-3.73-0.513-5.685-0.939
					c-3.911-0.776-8.059-1.878-12.349-3.414c-4.283-1.558-8.706-3.535-13.145-5.987c-8.859-4.902-17.866-11.701-25.593-20.512
					c-3.865-4.392-7.416-9.256-10.461-14.526c-0.744-1.325-1.461-2.673-2.167-4.033c-0.329-0.69-0.658-1.382-0.989-2.076l-0.5-1.042
					l-0.441-1.108c-1.142-2.973-2.522-5.887-3.393-9.036c-0.484-1.554-1.016-3.102-1.482-4.678c-0.385-1.604-0.772-3.214-1.16-4.83
					l-0.595-2.427l-0.415-2.485c-0.284-1.659-0.568-3.324-0.854-4.995c-0.176-1.694-0.352-3.393-0.529-5.096l-0.268-2.562
					c-0.079-0.857-0.075-1.726-0.119-2.59c-0.069-1.732-0.138-3.469-0.208-5.209c-0.018-1.745,0.065-3.502,0.088-5.26
					c0.258-14.083,3.021-28.479,7.236-42.455c2.241-6.953,4.706-13.874,7.755-20.528c2.94-6.704,6.298-13.191,9.975-19.399
					c7.326-12.469,16.114-23.834,25.538-33.93c4.739-5.027,9.675-9.699,14.681-14.063c5.007-4.366,10.184-8.284,15.322-11.938
					c5.158-3.629,10.384-6.816,15.508-9.753c1.301-0.696,2.59-1.385,3.866-2.068c0.639-0.342,1.275-0.683,1.907-1.022
					c0.644-0.313,1.285-0.625,1.923-0.935c1.277-0.623,2.54-1.24,3.79-1.849c1.271-0.561,2.529-1.117,3.772-1.665
					c9.963-4.385,19.457-7.303,27.89-9.227c8.437-1.919,15.818-2.929,21.718-3.38c0.739-0.072,1.453-0.141,2.144-0.208
					c0.692-0.037,1.359-0.073,2.001-0.107c1.29-0.082,2.48-0.158,3.566-0.226C1594.408,997.68,1596.172,997.666,1597.498,997.537z"
					/>
			</g>
			<g>
				<path style="fill:#276689;" d="M970.916,1060.511c-6.769-16.452-10.116-21.34-10.653-16.823
					c-0.268,2.256,0.168,6.858,1.231,13.512c0.266,1.664,0.57,3.456,0.913,5.371c0.39,1.902,0.842,3.92,1.323,6.059
					c0.97,4.276,2.092,9.025,3.382,14.202c5.513,20.58,14.452,47.815,28.018,78.161c1.748,3.768,3.526,7.601,5.333,11.495
					c0.909,1.945,1.825,3.906,2.748,5.881c0.982,1.946,1.972,3.906,2.969,5.879c2.002,3.945,4.031,7.945,6.087,11.997
					c2.181,3.985,4.39,8.019,6.623,12.099c1.122,2.038,2.251,4.087,3.385,6.147c1.196,2.024,2.399,4.059,3.607,6.104
					c2.43,4.082,4.843,8.23,7.367,12.359c5.213,8.153,10.378,16.541,16.105,24.705c5.519,8.307,11.571,16.392,17.57,24.616
					c3.088,4.046,6.254,8.059,9.401,12.106c1.595,2.007,3.119,4.075,4.781,6.037c1.642,1.978,3.286,3.958,4.932,5.941
					c1.648,1.98,3.297,3.963,4.948,5.947c0.832,0.987,1.64,1.994,2.492,2.965l2.567,2.904c3.428,3.868,6.86,7.741,10.293,11.614
					c7.099,7.532,14.089,15.169,21.488,22.357c7.216,7.367,14.822,14.279,22.255,21.243c7.673,6.708,15.16,13.499,22.959,19.742
					c1.929,1.583,3.852,3.162,5.77,4.736l2.878,2.346c0.979,0.755,1.956,1.508,2.932,2.261c3.905,3.001,7.782,5.981,11.627,8.936
					c3.872,2.918,7.822,5.669,11.677,8.462c1.935,1.386,3.861,2.765,5.778,4.137c1.935,1.346,3.9,2.63,5.834,3.935
					c3.879,2.589,7.715,5.15,11.507,7.68c3.87,2.406,7.693,4.784,11.465,7.129c1.888,1.166,3.762,2.324,5.624,3.475
					c1.883,1.116,3.778,2.183,5.645,3.262c3.742,2.139,7.428,4.245,11.053,6.316c3.642,2.037,7.308,3.893,10.863,5.781
					c1.783,0.933,3.549,1.857,5.299,2.772c1.749,0.914,3.474,1.828,5.23,2.646c3.49,1.668,6.907,3.301,10.247,4.897
					c3.34,1.589,6.595,3.151,9.853,4.505c3.239,1.384,6.394,2.732,9.462,4.042c3.067,1.305,6.045,2.568,8.999,3.644
					c5.879,2.21,11.365,4.287,16.495,6.048c10.354,3.316,19.023,5.977,25.955,7.309c13.766,2.886,15.951,1.747,9.378-2.391
					c-1.645-1.035-3.839-2.258-6.542-3.653c-1.351-0.698-2.83-1.439-4.431-2.221c-0.801-0.387-1.632-0.789-2.492-1.204
					c-0.851-0.434-1.731-0.882-2.639-1.345c-3.63-1.848-7.723-3.869-12.239-6.046c-1.129-0.545-2.283-1.102-3.462-1.671
					c-1.165-0.6-2.355-1.212-3.569-1.837c-2.432-1.236-4.962-2.521-7.584-3.854c-20.938-10.689-47.418-25.094-75.902-43.766
					c-3.531-2.377-7.113-4.788-10.741-7.231c-1.806-1.234-3.666-2.414-5.462-3.711c-1.803-1.287-3.616-2.583-5.44-3.885
					c-3.635-2.623-7.374-5.19-11.046-7.929c-3.655-2.761-7.347-5.55-11.072-8.364c-3.768-2.758-7.376-5.789-11.102-8.729
					c-3.692-2.981-7.493-5.887-11.125-9.047c-3.677-3.107-7.377-6.233-11.096-9.375c-3.635-3.241-7.289-6.498-10.958-9.769
					c-29.211-26.329-57.097-56.1-81.474-86.951c-12.151-15.448-23.651-31.009-33.91-46.594c-1.303-1.936-2.599-3.862-3.89-5.78
					c-1.275-1.927-2.472-3.89-3.703-5.818c-2.447-3.868-4.869-7.696-7.263-11.478c-2.286-3.849-4.546-7.652-6.775-11.405
					c-1.116-1.877-2.225-3.742-3.326-5.594c-1.049-1.881-2.091-3.748-3.125-5.602c-16.669-29.607-29.221-56.869-38.101-78.31
					c-1.107-2.682-2.274-5.231-3.227-7.74c-0.98-2.501-1.92-4.898-2.817-7.186c-0.908-2.287-1.773-4.465-2.592-6.53
					c-0.414-1.032-0.817-2.035-1.208-3.009c-0.366-0.983-0.722-1.936-1.066-2.86C974.49,1069.17,972.348,1063.706,970.916,1060.511z
					"/>
			</g>
			<g>
				<path style="fill:#276689;" d="M1556.028,1499.215c-10.203,3.08-13.393,5.307-10.759,6.793
					c2.623,1.462,11.084,2.363,23.866,1.928c12.751-0.55,29.819-2.509,49.23-6.967c2.417-0.593,4.875-1.196,7.373-1.809
					c1.248-0.312,2.506-0.626,3.774-0.943c1.256-0.355,2.522-0.714,3.797-1.074c2.548-0.73,5.133-1.471,7.75-2.221
					c2.591-0.834,5.214-1.68,7.867-2.534c1.325-0.433,2.658-0.867,3.998-1.305c1.325-0.478,2.658-0.958,3.996-1.441
					c2.674-0.976,5.385-1.936,8.097-2.965c5.379-2.166,10.888-4.288,16.326-6.768c5.498-2.344,10.921-5.031,16.415-7.679
					c5.41-2.817,10.908-5.578,16.248-8.682c5.413-2.973,10.676-6.255,15.966-9.486c5.19-3.392,10.424-6.716,15.433-10.332
					c5.094-3.49,9.958-7.262,14.826-10.932c4.745-3.838,9.51-7.563,13.981-11.534c4.564-3.855,8.86-7.91,13.105-11.86
					c2.105-1.994,4.119-4.053,6.145-6.053c1.007-1.006,2.009-2.007,3.006-3.003c0.983-1.01,1.933-2.045,2.891-3.058
					c1.902-2.038,3.784-4.054,5.643-6.046c1.79-2.054,3.558-4.083,5.303-6.084c0.866-1.003,1.727-2,2.581-2.989
					c0.825-1.016,1.644-2.024,2.456-3.025c1.61-2.01,3.195-3.989,4.755-5.936c1.538-1.962,2.97-3.957,4.407-5.884
					c1.414-1.947,2.85-3.811,4.143-5.729c1.292-1.915,2.558-3.789,3.795-5.622c1.229-1.835,2.43-3.622,3.508-5.434
					c1.089-1.799,2.15-3.552,3.181-5.256c1.024-1.706,2.011-3.364,2.884-5.029c1.777-3.306,3.424-6.397,4.839-9.316
					c2.72-5.913,4.837-10.914,5.959-15.052c2.36-8.193,1.266-9.949-2.342-6.913c-1.825,1.509-4.2,4.273-7.25,7.969
					c-1.548,1.833-3.235,3.919-5.049,6.234c-0.892,1.168-1.86,2.363-2.882,3.598c-1.003,1.246-2.046,2.542-3.127,3.885
					c-8.637,10.734-19.873,24.316-33.69,38.672c-3.526,3.518-7.026,7.264-10.853,10.855c-1.897,1.811-3.771,3.691-5.736,5.513
					c-1.975,1.812-3.97,3.643-5.983,5.489c-8.146,7.278-16.723,14.678-25.879,21.663c-18.188,14.124-38.189,27.207-58.456,38.228
					c-10.142,5.485-20.284,10.604-30.315,15.016c-1.249,0.565-2.492,1.128-3.729,1.688c-1.241,0.55-2.495,1.051-3.733,1.576
					c-2.481,1.042-4.935,2.073-7.361,3.092c-2.453,0.952-4.878,1.894-7.27,2.822c-1.197,0.466-2.386,0.929-3.567,1.389
					c-1.192,0.427-2.376,0.852-3.551,1.273c-18.785,6.823-35.821,11.561-49.134,14.8c-3.319,0.875-6.422,1.548-9.256,2.196
					c-2.836,0.63-5.393,1.316-7.678,1.783C1561.407,1497.702,1558.022,1498.547,1556.028,1499.215z"/>
			</g>
		</g>
		
			<ellipse transform="matrix(0.224 -0.9746 0.9746 0.224 -271.5337 1494.7997)" style="fill:#FFCCD9;" cx="802.919" cy="917.914" rx="64.128" ry="67.657"/>
		
			<ellipse transform="matrix(0.224 -0.9746 0.9746 0.224 -23.3977 1783.1656)" style="fill:#FFCCD9;" cx="1108.062" cy="906.276" rx="64.128" ry="67.657"/>
	</g>
</g>
</svg>
